<svg width="26" height="26" viewBox="0 0 26 26" fill="none" xmlns="http://www.w3.org/2000/svg">
<path fill-rule="evenodd" clip-rule="evenodd" d="M20.5085 17.3804V14.156L17.7173 15.7684V18.9928L20.5085 17.3804ZM14.2414 17.3804L17.0355 18.9928V15.7683L14.2414 14.1559V17.3804ZM17.3763 11.9539L20.1675 13.566L17.3763 15.1784L14.5822 13.566L17.3763 11.9539ZM21.1902 13.5659V17.577C21.1902 17.6988 21.1261 17.8115 21.0183 17.8724L17.5453 19.8776C17.4388 19.9394 17.3097 19.9387 17.2045 19.8776L13.7315 17.8724C13.6266 17.8115 13.5596 17.6988 13.5596 17.577V13.5659C13.5596 13.4442 13.6266 13.332 13.7315 13.2711L17.2045 11.2651C17.3094 11.2042 17.4405 11.2042 17.5453 11.2651L21.0183 13.2711C21.1261 13.332 21.1902 13.4442 21.1902 13.5659ZM8.62402 11.9539L5.83281 13.566L8.62402 15.1784L11.4152 13.566L8.62402 11.9539ZM11.7561 17.3804L8.96493 18.9928V15.7683L11.7561 14.1559V17.3804ZM5.49195 17.3804V14.156L8.28316 15.7684V18.9928L5.49195 17.3804ZM4.81018 17.5771V13.5659C4.81018 13.4442 4.8743 13.332 4.97918 13.2711L8.45507 11.2651C8.55995 11.2042 8.68813 11.2042 8.79593 11.2651L12.2689 13.2711C12.3738 13.332 12.4379 13.4442 12.4379 13.5659V17.577C12.4379 17.6988 12.3738 17.8115 12.2689 17.8724L8.79593 19.8776C8.69047 19.9388 8.56099 19.939 8.45507 19.8776L4.97918 17.8724C4.8743 17.8116 4.81018 17.6989 4.81018 17.5771ZM13.0002 4.40833L10.209 6.02012L13.0002 7.63249L15.7914 6.02012L13.0002 4.40833ZM16.1323 9.83458V6.61043L13.3411 8.22279V11.4469L16.1323 9.83458ZM9.86812 9.83458L12.6593 11.4469V8.22279L9.86812 6.61043V9.83458ZM9.35534 10.3267L12.8283 12.332C12.9357 12.3924 13.0629 12.3934 13.1692 12.332L16.6451 10.3267C16.75 10.2658 16.8141 10.153 16.8141 10.0315V6.02012C16.8141 5.89891 16.75 5.78617 16.6451 5.72528L13.1692 3.7199C13.0643 3.65901 12.9361 3.65901 12.8283 3.7199L9.35534 5.72528C9.25046 5.78617 9.18634 5.89891 9.18634 6.02012V10.0315C9.18634 10.153 9.25046 10.2658 9.35534 10.3267ZM20.0627 21.5742L20.0481 21.6919L19.3022 23.912C19.2527 24.0542 19.1216 24.1443 18.9788 24.1443C18.7478 24.1443 18.5827 23.9148 18.6554 23.695L19.0662 22.4692C14.6554 25.3032 8.80721 24.7089 5.04912 20.9512C1.02838 16.9311 0.640924 10.5321 4.14593 6.06645C4.26246 5.91846 4.47811 5.89251 4.62667 6.00879C4.77238 6.12532 4.79858 6.33919 4.682 6.48719C1.38967 10.6818 1.75388 16.6931 5.52986 20.4694C9.10481 24.0443 14.6813 24.5612 18.8244 21.8131L17.3589 21.624C17.1725 21.6002 17.0414 21.4291 17.0647 21.2429C17.088 21.0561 17.2599 20.9239 17.4463 20.9484L19.7655 21.2467V21.247C19.8809 21.27 19.8782 21.2797 19.9607 21.3403L19.987 21.3682L19.9928 21.3746C20.0323 21.4399 20.0627 21.4871 20.0627 21.5742ZM21.8516 19.9341C21.7348 20.0828 21.5232 20.107 21.3737 19.9918C21.2252 19.8755 21.1989 19.6611 21.3154 19.5128C24.6107 15.3188 24.2465 9.30782 20.4676 5.53096C16.8956 1.95601 11.3161 1.43887 7.17301 4.18754L8.64144 4.37604C8.82791 4.40022 8.959 4.57093 8.9357 4.75772C8.91126 4.94513 8.73696 5.07663 8.55402 5.05199L6.23191 4.75304C6.1652 4.73614 6.1251 4.73208 6.06 4.67873C6.05418 4.67322 6.04835 4.66677 6.03962 4.66095L6.0105 4.62683C5.98621 4.622 5.93473 4.49049 5.93473 4.41353L5.9522 4.30688L6.69809 2.08851C6.75638 1.90989 6.95159 1.81348 7.12933 1.87349C7.30706 1.93349 7.40321 2.12667 7.34492 2.30524L6.93412 3.53041C11.3307 0.704266 17.184 1.28204 20.9512 5.04866C24.972 9.06919 25.3595 15.4685 21.8516 19.9341Z" fill="black"/>
</svg>
