<svg width="26" height="26" viewBox="0 0 26 26" fill="none" xmlns="http://www.w3.org/2000/svg">
<path d="M25.3427 2.54834L23.0941 4.18767V20.3137H0V21.4299H1.90575C1.76402 21.7074 1.68406 22.0215 1.68406 22.3539C1.68406 23.4788 2.59963 24.3941 3.72453 24.3941C4.84937 24.3941 5.76441 23.4788 5.76441 22.3539C5.76441 22.0215 5.68445 21.7074 5.54283 21.4299H18.1095C17.9678 21.7074 17.8878 22.0215 17.8878 22.3539C17.8878 23.4788 18.8034 24.3941 19.9283 24.3941C21.0532 24.3941 21.9687 23.4788 21.9687 22.3539C21.9687 22.0215 21.8887 21.7074 21.747 21.4299H24.2103V4.755L26 3.45033L25.3427 2.54834ZM4.64827 22.354C4.64827 22.8635 4.23413 23.278 3.72453 23.278C3.21493 23.278 2.8002 22.8636 2.8002 22.354C2.8002 21.8444 3.21498 21.4299 3.72453 21.4299C4.23413 21.4299 4.64827 21.8444 4.64827 22.354ZM20.8525 22.354C20.8525 22.8635 20.4378 23.278 19.9282 23.278C19.4186 23.278 19.0039 22.8636 19.0039 22.354C19.0039 21.8444 19.4186 21.4299 19.9282 21.4299C20.4378 21.4299 20.8525 21.8444 20.8525 22.354Z" fill="black"/>
<path d="M20.4864 9.30713H11.8003V17.8747H20.4864V9.30713ZM19.3702 16.7585H12.9164V10.4233H19.3702V16.7585Z" fill="black"/>
<path d="M19.4231 1.60547H12.8635V7.91593H19.4231V1.60547ZM18.307 6.79979H13.9797V2.72161H18.307V6.79979Z" fill="black"/>
<path d="M10.3702 9.30713H1.68408V17.8747H10.3702V9.30713ZM9.25406 16.7585H2.80022V10.4233H9.25406V16.7585Z" fill="black"/>
</svg>
